<?xml version="1.0" encoding="UTF-8"?>
<svg id="Layer_1" xmlns="http://www.w3.org/2000/svg" version="1.1" viewBox="0 0 500 500">
  <!-- Generator: Adobe Illustrator 30.2.1, SVG Export Plug-In . SVG Version: 2.1.1 Build 1)  -->
  <defs>
    <style>
      .st0 {
        fill: #e3e800;
      }
    </style>
  </defs>
  <rect x=".39" y=".2" width="500" height="500" rx="110.77" ry="110.77"/>
  <g>
    <path class="st0" d="M319.98,62.87h-5.38c-3.2,0-5.79-2.59-5.79-5.79s2.6-5.79,5.79-5.79h5.38c3.2,0,5.79,2.59,5.79,5.79s-2.6,5.79-5.79,5.79Z"/>
    <path class="st0" d="M312.66,83.2h-14.1c-3.2,0-5.79-2.59-5.79-5.79s2.6-5.79,5.79-5.79h14.1c3.2,0,5.79,2.59,5.79,5.79s-2.6,5.79-5.79,5.79Z"/>
    <path class="st0" d="M305.34,103.53h-22.82c-3.2,0-5.79-2.59-5.79-5.79s2.6-5.79,5.79-5.79h22.82c3.2,0,5.79,2.59,5.79,5.79s-2.6,5.79-5.79,5.79Z"/>
    <path class="st0" d="M298.01,123.86h-31.54c-3.2,0-5.79-2.59-5.79-5.79s2.6-5.79,5.79-5.79h31.54c3.2,0,5.79,2.59,5.79,5.79s-2.6,5.79-5.79,5.79Z"/>
    <path class="st0" d="M290.69,144.19h-40.26c-3.2,0-5.79-2.59-5.79-5.79s2.6-5.79,5.79-5.79h40.26c3.2,0,5.79,2.59,5.79,5.79s-2.6,5.79-5.79,5.79Z"/>
    <path class="st0" d="M283.37,164.52h-48.98c-3.2,0-5.79-2.59-5.79-5.79s2.6-5.79,5.79-5.79h48.98c3.2,0,5.79,2.59,5.79,5.79s-2.6,5.79-5.79,5.79Z"/>
    <path class="st0" d="M276.05,184.84h-57.7c-3.2,0-5.79-2.59-5.79-5.79s2.6-5.79,5.79-5.79h57.7c3.2,0,5.79,2.59,5.79,5.79s-2.6,5.79-5.79,5.79Z"/>
    <path class="st0" d="M268.73,205.17h-66.42c-3.2,0-5.79-2.59-5.79-5.79s2.6-5.79,5.79-5.79h66.42c3.2,0,5.79,2.59,5.79,5.79s-2.6,5.79-5.79,5.79Z"/>
    <path class="st0" d="M362.64,225.5h-176.38c-3.2,0-5.79-2.59-5.79-5.79s2.6-5.79,5.79-5.79h176.38c3.2,0,5.79,2.59,5.79,5.79s-2.6,5.79-5.79,5.79Z"/>
    <path class="st0" d="M346.6,245.83h-176.38c-3.2,0-5.79-2.59-5.79-5.79s2.6-5.79,5.79-5.79h176.38c3.2,0,5.79,2.59,5.79,5.79s-2.6,5.79-5.79,5.79Z"/>
    <path class="st0" d="M330.56,266.16h-176.38c-3.2,0-5.79-2.59-5.79-5.79s2.6-5.79,5.79-5.79h176.38c3.2,0,5.79,2.59,5.79,5.79s-2.6,5.79-5.79,5.79Z"/>
    <path class="st0" d="M314.52,286.49h-176.38c-3.2,0-5.79-2.59-5.79-5.79s2.6-5.79,5.79-5.79h176.38c3.2,0,5.79,2.59,5.79,5.79s-2.6,5.79-5.79,5.79Z"/>
    <path class="st0" d="M298.47,306.82h-66.42c-3.2,0-5.79-2.59-5.79-5.79s2.6-5.79,5.79-5.79h66.42c3.2,0,5.79,2.59,5.79,5.79s-2.6,5.79-5.79,5.79Z"/>
    <path class="st0" d="M282.43,327.15h-57.7c-3.2,0-5.79-2.59-5.79-5.79s2.6-5.79,5.79-5.79h57.7c3.2,0,5.79,2.59,5.79,5.79s-2.6,5.79-5.79,5.79Z"/>
    <path class="st0" d="M266.39,347.47h-48.98c-3.2,0-5.79-2.59-5.79-5.79s2.6-5.79,5.79-5.79h48.98c3.2,0,5.79,2.59,5.79,5.79s-2.6,5.79-5.79,5.79Z"/>
    <path class="st0" d="M250.35,367.8h-40.26c-3.2,0-5.79-2.59-5.79-5.79s2.6-5.79,5.79-5.79h40.26c3.2,0,5.79,2.59,5.79,5.79s-2.6,5.79-5.79,5.79Z"/>
    <path class="st0" d="M234.31,388.13h-31.54c-3.2,0-5.79-2.59-5.79-5.79s2.6-5.79,5.79-5.79h31.54c3.2,0,5.79,2.59,5.79,5.79s-2.6,5.79-5.79,5.79Z"/>
    <path class="st0" d="M218.26,408.46h-22.82c-3.2,0-5.79-2.59-5.79-5.79s2.6-5.79,5.79-5.79h22.82c3.2,0,5.79,2.59,5.79,5.79s-2.6,5.79-5.79,5.79Z"/>
    <path class="st0" d="M202.22,428.79h-14.1c-3.2,0-5.79-2.59-5.79-5.79s2.6-5.79,5.79-5.79h14.1c3.2,0,5.79,2.59,5.79,5.79s-2.6,5.79-5.79,5.79Z"/>
    <path class="st0" d="M186.18,449.12h-5.38c-3.2,0-5.79-2.59-5.79-5.79s2.6-5.79,5.79-5.79h5.38c3.2,0,5.79,2.59,5.79,5.79s-2.6,5.79-5.79,5.79Z"/>
  </g>
</svg>