<svg xmlns="http://www.w3.org/2000/svg" width="22.7" height="22.7" viewBox="0 0 22.7 22.7">
  <path id="Path_5" data-name="Path 5" d="M9.42,20.2a6.677,6.677,0,0,1,3.405-3.447,9.958,9.958,0,0,1,3.632-.866A7.1,7.1,0,0,1,17.734,16q.625.114,1.22.284a10.019,10.019,0,0,0,1.078-2.327,8.567,8.567,0,0,0,.4-2.61,8.764,8.764,0,0,0-2.639-6.441A8.764,8.764,0,0,0,11.35,2.27,8.764,8.764,0,0,0,4.909,4.909,8.764,8.764,0,0,0,2.27,11.35,9.022,9.022,0,0,0,2.6,13.79a7.7,7.7,0,0,0,.98,2.156,12.281,12.281,0,0,1,2.412-.88,10.391,10.391,0,0,1,2.525-.312,9.463,9.463,0,0,1,1.744.157,14.471,14.471,0,0,1,1.661.411,8.08,8.08,0,0,0-1.235.795,12.028,12.028,0,0,0-1.092.965,3.67,3.67,0,0,0-.582-.057h-.5a8.248,8.248,0,0,0-1.8.2,7.872,7.872,0,0,0-1.717.6,8.848,8.848,0,0,0,2.028,1.519,8.474,8.474,0,0,0,2.4.865m-2.5,1.6a11.332,11.332,0,0,1-6.03-6.029A11.054,11.054,0,0,1,0,11.35,11.054,11.054,0,0,1,.893,6.924,11.332,11.332,0,0,1,6.924.894,11.055,11.055,0,0,1,11.35,0a11.055,11.055,0,0,1,4.426.894,11.325,11.325,0,0,1,6.029,6.029A11.055,11.055,0,0,1,22.7,11.35a11.055,11.055,0,0,1-.894,4.426,11.325,11.325,0,0,1-6.029,6.029,11.036,11.036,0,0,1-4.426.894,11.036,11.036,0,0,1-4.427-.894M5.7,11.889A3.828,3.828,0,0,1,4.54,9.08,3.828,3.828,0,0,1,5.7,6.271,3.828,3.828,0,0,1,8.512,5.108,3.972,3.972,0,0,1,12.485,9.08a3.972,3.972,0,0,1-3.972,3.972A3.828,3.828,0,0,1,5.7,11.889m4.014-1.6a1.711,1.711,0,0,0,0-2.412,1.711,1.711,0,0,0-2.412,0,1.7,1.7,0,0,0,1.207,2.908,1.641,1.641,0,0,0,1.205-.5m4.725,3.078a2.878,2.878,0,0,1,0-4.029A2.838,2.838,0,0,1,19.3,11.35a2.849,2.849,0,0,1-4.852,2.015" fill="#1c1d17"/>
</svg>
