<svg xmlns="http://www.w3.org/2000/svg" width="20" height="20" viewBox="0 0 20 20">
  <path id="Path_45" data-name="Path 45" d="M1.556,20,0,18.444,11.389,7.056a4.084,4.084,0,0,1-.139-2.639,5.4,5.4,0,0,1,1.583-2.639A5.691,5.691,0,0,1,16.111.056a3.254,3.254,0,0,1,3.833,3.833,5.691,5.691,0,0,1-1.722,3.278A5.4,5.4,0,0,1,15.583,8.75a4.084,4.084,0,0,1-2.639-.139L11.556,10,20,18.444,18.444,20,10,11.611Zm3.278-9.5L1.5,7.167A4.891,4.891,0,0,1,0,3.583,4.891,4.891,0,0,1,1.5,0L8.389,6.944Z" fill="#1c1d17"/>
</svg>
