<svg xmlns="http://www.w3.org/2000/svg" width="22.672" height="22.686" viewBox="0 0 22.672 22.686">
  <path id="exercise_24dp_1F1F1F_FILL0_wght400_GRAD0_opsz24" d="M102.14-872.125l-1.589-1.589.851-.88-3.632-3.632-.88.851-1.617-1.617.851-.88a2.149,2.149,0,0,1,1.617-.638,2.246,2.246,0,0,1,1.617.667l3.66,3.66a2.18,2.18,0,0,1,.653,1.6,2.179,2.179,0,0,1-.653,1.6Zm-13.62,13.648a2.179,2.179,0,0,1-1.6.653,2.179,2.179,0,0,1-1.6-.653l-3.66-3.66a2.179,2.179,0,0,1-.653-1.6,2.18,2.18,0,0,1,.653-1.6l.851-.851,1.617,1.617-.88.851,3.66,3.66.851-.88,1.617,1.617Zm11.265-9.534,1.617-1.617-8.6-8.6-1.617,1.617Zm-7.945,7.945,1.617-1.646-8.569-8.569-1.646,1.617Zm-.17-6.64L94.79-869.8l-1.816-1.816-3.093,3.121Zm1.788,8.229a2.2,2.2,0,0,1-1.617.653,2.2,2.2,0,0,1-1.617-.653l-8.569-8.569A2.2,2.2,0,0,1,81-868.664a2.2,2.2,0,0,1,.653-1.617L83.27-871.9a2.18,2.18,0,0,1,1.6-.653,2.18,2.18,0,0,1,1.6.653l1.788,1.788,3.121-3.121L89.6-874.991a2.2,2.2,0,0,1-.653-1.617,2.2,2.2,0,0,1,.653-1.617l1.617-1.617a2.18,2.18,0,0,1,1.6-.653,2.179,2.179,0,0,1,1.6.653l8.6,8.6a2.179,2.179,0,0,1,.653,1.6,2.18,2.18,0,0,1-.653,1.6l-1.617,1.617a2.2,2.2,0,0,1-1.617.653,2.2,2.2,0,0,1-1.617-.653l-1.759-1.788-3.121,3.121,1.788,1.788a2.179,2.179,0,0,1,.653,1.6,2.18,2.18,0,0,1-.653,1.6Z" transform="translate(-81 880.511)" fill="#1c1d17"/>
</svg>
