<svg xmlns="http://www.w3.org/2000/svg" width="29.186" height="17.51" viewBox="0 0 29.186 17.51">
  <path id="Path_29" data-name="Path 29" d="M13.134,17.51a8.439,8.439,0,0,1-6.2-2.554,8.443,8.443,0,0,1-2.554-6.2c0-.267.013-.533.036-.8s.061-.536.111-.8a1.838,1.838,0,0,1-.439.109,3.069,3.069,0,0,1-.438.036,3.513,3.513,0,0,1-2.59-1.058A3.518,3.518,0,0,1,0,3.648,3.617,3.617,0,0,1,1,1.059,3.335,3.335,0,0,1,3.539,0,3.717,3.717,0,0,1,5.71.674,3.679,3.679,0,0,1,7.079,2.406,9.638,9.638,0,0,1,9.833.657,8.347,8.347,0,0,1,13.134,0H29.186V5.837h-7.3V8.754a8.437,8.437,0,0,1-2.554,6.2,8.436,8.436,0,0,1-6.2,2.554M4.689,4.687a1.407,1.407,0,0,0,.419-1.039A1.433,1.433,0,0,0,3.648,2.189,1.436,1.436,0,0,0,2.189,3.648,1.436,1.436,0,0,0,3.648,5.108a1.406,1.406,0,0,0,1.04-.42m12.057,7.679a4.914,4.914,0,0,0,1.5-3.612,4.921,4.921,0,0,0-1.5-3.612,4.92,4.92,0,0,0-3.612-1.494A4.925,4.925,0,0,0,9.522,5.143a4.926,4.926,0,0,0-1.5,3.612,4.919,4.919,0,0,0,1.5,3.612,4.921,4.921,0,0,0,3.612,1.5,4.916,4.916,0,0,0,3.612-1.5m-1.55-1.55a2.908,2.908,0,0,0,0-4.123,2.908,2.908,0,0,0-4.123,0,2.9,2.9,0,0,0,0,4.123,2.908,2.908,0,0,0,4.123,0" fill="#1c1d17"/>
</svg>
